<svg viewBox="0 0 512 512" xmlns="http://www.w3.org/2000/svg">
  <path d="M0 0h512v512H0z" fill="#3c6392"/>
  <g fill="#fff">
    <path d="M31.969 367.898C21.133 385.78 10.468 403.953 0 422.04v23.695l1.734-3.017c14.116-24.563 28.638-49.5 43.434-73.756l.645-1.057-2.364-.004h-9.17zm436.441.547.64 1.053c13.748 22.618 27.55 46.296 41.206 70.059l1.744 3.035v-23.696c-9.876-17.06-19.806-33.996-29.736-50.443l-2.315-.004h-9.19z" fill-opacity=".4"/>
    <path d="M257.217 156.045c-14.083.086-28.272 2.891-42.424 8.412-26.985 10.524-54.577 31.157-82.129 61.252-31.804 34.74-63.77 81.944-94.615 132.209L0 357.861v11.998l34.28.041h9.17l427.308.55h9.191l32.051.052V358.5l-35.803-.049a1738.618 1738.618 0 0 0-14.517-23.361c-22.632-35.74-43.905-65.675-64.205-90.23-.402-.488-.414-1.123-.022-1.657 4.65-6.308 7.18-14.296 6.512-22.86-1.276-16.336-14.375-29.635-30.703-31.124-8.358-.763-16.187 1.51-22.475 5.853h-.002l-.002.002c-.526.36-1.175.329-1.65-.068-17.118-14.397-33.728-24.662-50.125-31.059h-.002c-13.73-5.356-27.706-7.988-41.79-7.902zm.031 11.84c12.617-.084 25.12 2.283 37.465 7.097v.002h.002c14.92 5.813 30.231 15.228 46.154 28.512.51.428.619 1.152.246 1.76-3.546 5.756-5.426 12.654-4.97 19.988 1.042 16.74 14.49 30.413 31.209 31.72 7.166.563 13.938-1.118 19.654-4.411h.002c.611-.353 1.29-.239 1.72.275.001.001.003 0 .004.002 19.787 24.002 40.65 53.405 62.946 88.6 3.522 5.563 7.057 11.273 10.595 17.015l-410.283-.511c29.37-47.464 59.638-91.682 89.424-124.223 26.45-28.897 52.631-48.453 77.69-58.217h.001c12.794-4.99 25.524-7.526 38.141-7.61z"/>
  </g>
</svg>
