<svg xmlns="http://www.w3.org/2000/svg" viewBox="0 0 512 512">
  <path style="fill:#3c6392" d="M0 0h512v512H0z"/>
  <path d="M475.09 360.46c-5.04-8.26-10.08-16.37-15.1-24.3-22.6-35.69-43.83-65.56-64.06-90.03-.98-1.19-1-2.87-.09-4.11 4.38-5.94 6.76-13.44 6.13-21.52-1.2-15.36-13.54-27.89-28.89-29.29-7.89-.72-15.24 1.42-21.16 5.51-1.25.86-2.91.79-4.07-.18-16.99-14.29-33.42-24.43-49.57-30.73-27.02-10.54-54.87-10.37-82.76.51-26.59 10.37-53.97 30.8-81.38 60.74-31.85 34.79-63.99 82.28-94.99 132.86L0 359.86v8l34.28.04h9.17l427.31.55h9.19l31.56.05v-8l-36.42-.05Zm-426.73-.53c30-48.69 60.99-94.15 91.58-127.57 26.59-29.05 52.98-48.81 78.44-58.73 26-10.14 51.93-10.31 77.06-.51 15.17 5.91 30.66 15.45 46.71 28.84 1.28 1.07 1.54 2.92.67 4.34-3.34 5.42-5.11 11.9-4.68 18.82.98 15.74 13.65 28.62 29.37 29.85 6.76.53 13.12-1.05 18.5-4.15 1.42-.82 3.21-.53 4.26.73 19.86 24.09 40.77 53.56 63.1 88.81 4.16 6.57 8.33 13.28 12.51 20.09l-417.52-.52Z" style="fill:#fff"/>
  <path d="M34.29 367.91c-11.63 19.17-23.08 38.7-34.29 58.1v15.71c14.12-24.57 28.65-49.52 43.46-73.8h-9.17ZM479.95 368.46h-9.19c13.76 22.64 27.57 46.33 41.23 70.1v-15.71c-10.64-18.41-21.35-36.69-32.05-54.39Z" style="fill:#ffffff80"/>
</svg>